# Blender v2.80 (sub 75) OBJ File: 'floor.blend'
# www.blender.org
mtllib floor.mtl
o Floor_Cube.001
v -10.000000 0.000000 10.000000
v -10.000000 1.000000 10.000000
v -10.000000 0.000000 -10.000000
v -10.000000 1.000000 -10.000000
v 10.000000 0.000000 10.000000
v 10.000000 1.000000 10.000000
v 10.000000 0.000000 -10.000000
v 10.000000 1.000000 -10.000000
v -9.391016 1.000000 9.391016
v -9.391016 1.000000 -9.391016
v 9.391016 1.000000 9.391016
v 9.391016 1.000000 -9.391016
v -9.391016 0.263680 9.391016
v -9.391016 0.263680 -9.391016
v 9.391016 0.263680 9.391016
v 9.391016 0.263680 -9.391016
vt 0.375000 0.000000
vt 0.625000 0.000000
vt 0.625000 0.250000
vt 0.375000 0.250000
vt 0.625000 0.500000
vt 0.375000 0.500000
vt 0.625000 0.750000
vt 0.375000 0.750000
vt 0.625000 1.000000
vt 0.375000 1.000000
vt 0.125000 0.500000
vt 0.125000 0.750000
vt 0.625000 0.250000
vt 0.625000 0.500000
vt 0.625000 0.750000
vt 0.625000 0.500000
vt 0.625000 0.750000
vt 0.625000 0.000000
vt 0.625000 1.000000
vt 0.875000 0.500000
vt 0.875000 0.750000
vt 0.625000 0.000000
vt 0.625000 0.250000
vt 0.625000 1.000000
vn -1.0000 0.0000 0.0000
vn 0.0000 0.0000 -1.0000
vn 1.0000 0.0000 0.0000
vn 0.0000 0.0000 1.0000
vn 0.0000 -1.0000 0.0000
vn 0.0000 1.0000 0.0000
usemtl Material.003
s off
f 1/1/1 2/2/1 4/3/1 3/4/1
f 3/4/2 4/3/2 8/5/2 7/6/2
f 7/6/3 8/5/3 6/7/3 5/8/3
f 5/8/4 6/7/4 2/9/4 1/10/4
f 3/11/5 7/6/5 5/8/5 1/12/5
f 8/5/6 4/3/6 10/13/6 12/14/6
f 11/15/1 12/14/1 16/16/1 15/17/1
f 6/7/6 8/5/6 12/14/6 11/15/6
f 4/3/6 2/2/6 9/18/6 10/13/6
f 2/9/6 6/7/6 11/15/6 9/19/6
f 16/16/6 14/20/6 13/21/6 15/17/6
f 10/13/3 9/18/3 13/22/3 14/23/3
f 9/19/2 11/15/2 15/17/2 13/24/2
f 12/14/4 10/13/4 14/23/4 16/16/4
